<?xml version="1.0" encoding="UTF-8" standalone="no"?>
<!DOCTYPE svg PUBLIC "-//W3C//DTD SVG 1.1//EN"
 "http://www.w3.org/Graphics/SVG/1.1/DTD/svg11.dtd">
<!-- Generated by graphviz version 2.47.0 (20210316.0004)
 -->
<!-- Title: dependencies Pages: 1 -->
<svg width="2029pt" height="284pt"
 viewBox="0.00 0.00 2029.00 284.00" xmlns="http://www.w3.org/2000/svg" xmlns:xlink="http://www.w3.org/1999/xlink">
<g id="graph0" class="graph" transform="scale(1 1) rotate(0) translate(4 280)">
<title>dependencies</title>
<polygon fill="white" stroke="transparent" points="-4,4 -4,-280 2025,-280 2025,4 -4,4"/>
<text text-anchor="start" x="989.51" y="-42.4" font-family="Times-12" font-weight="bold" font-size="14.00">Legend</text>
<polygon fill="#ffffb3" stroke="transparent" points="776.5,-10 776.5,-30 796.5,-30 796.5,-10 776.5,-10"/>
<text text-anchor="start" x="800.13" y="-15.4" font-family="Times-12" font-size="14.00"> &#160;Declarations</text>
<polygon fill="#8dd3c7" stroke="transparent" points="889.5,-10 889.5,-30 909.5,-30 909.5,-10 889.5,-10"/>
<text text-anchor="start" x="913.23" y="-15.4" font-family="Times-12" font-size="14.00"> &#160;Module</text>
<polygon fill="#80b1d3" stroke="transparent" points="975.5,-10 975.5,-30 995.5,-30 995.5,-10 975.5,-10"/>
<text text-anchor="start" x="999.28" y="-15.4" font-family="Times-12" font-size="14.00"> &#160;Bootstrap</text>
<polygon fill="#fdb462" stroke="transparent" points="1072.5,-10 1072.5,-30 1092.5,-30 1092.5,-10 1072.5,-10"/>
<text text-anchor="start" x="1096.17" y="-15.4" font-family="Times-12" font-size="14.00"> &#160;Providers</text>
<polygon fill="#fb8072" stroke="transparent" points="1168.5,-10 1168.5,-30 1188.5,-30 1188.5,-10 1168.5,-10"/>
<text text-anchor="start" x="1192.23" y="-15.4" font-family="Times-12" font-size="14.00"> &#160;Exports</text>
<g id="clust1" class="cluster">
<title>cluster_PostModule</title>
<polygon fill="none" stroke="black" stroke-dasharray="1,5" points="8,-70 8,-268 2013,-268 2013,-70 8,-70"/>
</g>
<g id="clust15" class="cluster">
<title>cluster_PostModule_providers</title>
<polygon fill="none" stroke="black" points="1875,-78 1875,-130 2005,-130 2005,-78 1875,-78"/>
</g>
<g id="clust2" class="cluster">
<title>cluster_PostModule_declarations</title>
<polygon fill="none" stroke="black" points="168,-78 168,-130 1867,-130 1867,-78 168,-78"/>
</g>
<g id="clust13" class="cluster">
<title>cluster_PostModule_exports</title>
<polygon fill="none" stroke="black" points="152,-208 152,-260 1883,-260 1883,-208 152,-208"/>
</g>
<g id="clust12" class="cluster">
<title>cluster_PostModule_imports</title>
<polygon fill="none" stroke="black" points="16,-78 16,-130 160,-130 160,-78 16,-78"/>
</g>
<!-- PostActionsComponent -->
<g id="node1" class="node">
<title>PostActionsComponent</title>
<polygon fill="#ffffb3" stroke="black" points="1859.5,-122 1710.5,-122 1710.5,-86 1859.5,-86 1859.5,-122"/>
<text text-anchor="middle" x="1785" y="-99.8" font-family="Times,serif" font-size="14.00">PostActionsComponent</text>
</g>
<!-- PostModule -->
<g id="node10" class="node">
<title>PostModule</title>
<polygon fill="#8dd3c7" stroke="black" points="1097.67,-187 1094.67,-191 1073.67,-191 1070.67,-187 1014.33,-187 1014.33,-151 1097.67,-151 1097.67,-187"/>
<text text-anchor="middle" x="1056" y="-164.8" font-family="Times,serif" font-size="14.00">PostModule</text>
</g>
<!-- PostActionsComponent&#45;&gt;PostModule -->
<g id="edge1" class="edge">
<title>PostActionsComponent&#45;&gt;PostModule</title>
<path fill="none" stroke="black" d="M1716.63,-122.27C1716.63,-140.56 1716.63,-166 1716.63,-166 1716.63,-166 1107.83,-166 1107.83,-166"/>
<polygon fill="black" stroke="black" points="1107.83,-162.5 1097.83,-166 1107.83,-169.5 1107.83,-162.5"/>
</g>
<!-- PostConsultationComponent -->
<g id="node2" class="node">
<title>PostConsultationComponent</title>
<polygon fill="#ffffb3" stroke="black" points="1692.51,-122 1515.49,-122 1515.49,-86 1692.51,-86 1692.51,-122"/>
<text text-anchor="middle" x="1604" y="-99.8" font-family="Times,serif" font-size="14.00">PostConsultationComponent</text>
</g>
<!-- PostConsultationComponent&#45;&gt;PostModule -->
<g id="edge2" class="edge">
<title>PostConsultationComponent&#45;&gt;PostModule</title>
<path fill="none" stroke="black" d="M1519.62,-122.03C1519.62,-139.06 1519.62,-162 1519.62,-162 1519.62,-162 1107.96,-162 1107.96,-162"/>
<polygon fill="black" stroke="black" points="1107.96,-158.5 1097.96,-162 1107.96,-165.5 1107.96,-158.5"/>
</g>
<!-- PostCreationFormComponent -->
<g id="node3" class="node">
<title>PostCreationFormComponent</title>
<polygon fill="#ffffb3" stroke="black" points="1496.99,-122 1313.01,-122 1313.01,-86 1496.99,-86 1496.99,-122"/>
<text text-anchor="middle" x="1405" y="-99.8" font-family="Times,serif" font-size="14.00">PostCreationFormComponent</text>
</g>
<!-- PostCreationFormComponent&#45;&gt;PostModule -->
<g id="edge3" class="edge">
<title>PostCreationFormComponent&#45;&gt;PostModule</title>
<path fill="none" stroke="black" d="M1437.42,-122.01C1437.42,-138.05 1437.42,-159 1437.42,-159 1437.42,-159 1107.91,-159 1107.91,-159"/>
<polygon fill="black" stroke="black" points="1107.91,-155.5 1097.91,-159 1107.91,-162.5 1107.91,-155.5"/>
</g>
<!-- PostListComponent -->
<g id="node4" class="node">
<title>PostListComponent</title>
<polygon fill="#ffffb3" stroke="black" points="1294.73,-122 1167.27,-122 1167.27,-86 1294.73,-86 1294.73,-122"/>
<text text-anchor="middle" x="1231" y="-99.8" font-family="Times,serif" font-size="14.00">PostListComponent</text>
</g>
<!-- PostListComponent&#45;&gt;PostModule -->
<g id="edge4" class="edge">
<title>PostListComponent&#45;&gt;PostModule</title>
<path fill="none" stroke="black" d="M1252.95,-122.12C1252.95,-136.78 1252.95,-155 1252.95,-155 1252.95,-155 1107.77,-155 1107.77,-155"/>
<polygon fill="black" stroke="black" points="1107.77,-151.5 1097.77,-155 1107.77,-158.5 1107.77,-151.5"/>
</g>
<!-- PostListPaginationComponent -->
<g id="node5" class="node">
<title>PostListPaginationComponent</title>
<polygon fill="#ffffb3" stroke="black" points="1149.61,-122 962.39,-122 962.39,-86 1149.61,-86 1149.61,-122"/>
<text text-anchor="middle" x="1056" y="-99.8" font-family="Times,serif" font-size="14.00">PostListPaginationComponent</text>
</g>
<!-- PostListPaginationComponent&#45;&gt;PostModule -->
<g id="edge5" class="edge">
<title>PostListPaginationComponent&#45;&gt;PostModule</title>
<path fill="none" stroke="black" d="M1056,-122.11C1056,-122.11 1056,-140.99 1056,-140.99"/>
<polygon fill="black" stroke="black" points="1052.5,-140.99 1056,-150.99 1059.5,-140.99 1052.5,-140.99"/>
</g>
<!-- PostListSearchComponent -->
<g id="node6" class="node">
<title>PostListSearchComponent</title>
<polygon fill="#ffffb3" stroke="black" points="944.82,-122 779.18,-122 779.18,-86 944.82,-86 944.82,-122"/>
<text text-anchor="middle" x="862" y="-99.8" font-family="Times,serif" font-size="14.00">PostListSearchComponent</text>
</g>
<!-- PostListSearchComponent&#45;&gt;PostModule -->
<g id="edge6" class="edge">
<title>PostListSearchComponent&#45;&gt;PostModule</title>
<path fill="none" stroke="black" d="M888.05,-122.12C888.05,-136.78 888.05,-155 888.05,-155 888.05,-155 1004.05,-155 1004.05,-155"/>
<polygon fill="black" stroke="black" points="1004.05,-158.5 1014.05,-155 1004.05,-151.5 1004.05,-158.5"/>
</g>
<!-- PostViewConsultationComponent -->
<g id="node7" class="node">
<title>PostViewConsultationComponent</title>
<polygon fill="#ffffb3" stroke="black" points="761.83,-122 554.17,-122 554.17,-86 761.83,-86 761.83,-122"/>
<text text-anchor="middle" x="658" y="-99.8" font-family="Times,serif" font-size="14.00">PostViewConsultationComponent</text>
</g>
<!-- PostViewConsultationComponent&#45;&gt;PostModule -->
<g id="edge7" class="edge">
<title>PostViewConsultationComponent&#45;&gt;PostModule</title>
<path fill="none" stroke="black" d="M688.39,-122.01C688.39,-138.05 688.39,-159 688.39,-159 688.39,-159 1004.19,-159 1004.19,-159"/>
<polygon fill="black" stroke="black" points="1004.19,-162.5 1014.19,-159 1004.19,-155.5 1004.19,-162.5"/>
</g>
<!-- PostViewCreationComponent -->
<g id="node8" class="node">
<title>PostViewCreationComponent</title>
<polygon fill="#ffffb3" stroke="black" points="535.98,-122 352.02,-122 352.02,-86 535.98,-86 535.98,-122"/>
<text text-anchor="middle" x="444" y="-99.8" font-family="Times,serif" font-size="14.00">PostViewCreationComponent</text>
</g>
<!-- PostViewCreationComponent&#45;&gt;PostModule -->
<g id="edge8" class="edge">
<title>PostViewCreationComponent&#45;&gt;PostModule</title>
<path fill="none" stroke="black" d="M531.36,-122.03C531.36,-139.06 531.36,-162 531.36,-162 531.36,-162 1003.95,-162 1003.95,-162"/>
<polygon fill="black" stroke="black" points="1003.95,-165.5 1013.95,-162 1003.95,-158.5 1003.95,-165.5"/>
</g>
<!-- PostViewListComponent -->
<g id="node9" class="node">
<title>PostViewListComponent</title>
<polygon fill="#ffffb3" stroke="black" points="333.55,-122 176.45,-122 176.45,-86 333.55,-86 333.55,-122"/>
<text text-anchor="middle" x="255" y="-99.8" font-family="Times,serif" font-size="14.00">PostViewListComponent</text>
</g>
<!-- PostViewListComponent&#45;&gt;PostModule -->
<g id="edge9" class="edge">
<title>PostViewListComponent&#45;&gt;PostModule</title>
<path fill="none" stroke="black" d="M327.65,-122.27C327.65,-140.56 327.65,-166 327.65,-166 327.65,-166 1004.22,-166 1004.22,-166"/>
<polygon fill="black" stroke="black" points="1004.22,-169.5 1014.22,-166 1004.22,-162.5 1004.22,-169.5"/>
</g>
<!-- PostActionsComponent  -->
<g id="node12" class="node">
<title>PostActionsComponent </title>
<polygon fill="#fb8072" stroke="black" points="1875.5,-252 1722.5,-252 1722.5,-216 1875.5,-216 1875.5,-252"/>
<text text-anchor="middle" x="1799" y="-229.8" font-family="Times,serif" font-size="14.00">PostActionsComponent </text>
</g>
<!-- PostModule&#45;&gt;PostActionsComponent  -->
<g id="edge11" class="edge">
<title>PostModule&#45;&gt;PostActionsComponent </title>
<path fill="none" stroke="black" stroke-dasharray="5,2" d="M1097.9,-173C1253.75,-173 1791.12,-173 1791.12,-173 1791.12,-173 1791.12,-205.7 1791.12,-205.7"/>
<polygon fill="black" stroke="black" points="1787.63,-205.7 1791.12,-215.7 1794.63,-205.7 1787.63,-205.7"/>
</g>
<!-- PostConsultationComponent  -->
<g id="node13" class="node">
<title>PostConsultationComponent </title>
<polygon fill="#fb8072" stroke="black" points="1704.01,-252 1523.99,-252 1523.99,-216 1704.01,-216 1704.01,-252"/>
<text text-anchor="middle" x="1614" y="-229.8" font-family="Times,serif" font-size="14.00">PostConsultationComponent </text>
</g>
<!-- PostModule&#45;&gt;PostConsultationComponent  -->
<g id="edge12" class="edge">
<title>PostModule&#45;&gt;PostConsultationComponent </title>
<path fill="none" stroke="black" stroke-dasharray="5,2" d="M1097.95,-177C1226.8,-177 1608.12,-177 1608.12,-177 1608.12,-177 1608.12,-205.96 1608.12,-205.96"/>
<polygon fill="black" stroke="black" points="1604.63,-205.96 1608.12,-215.96 1611.63,-205.96 1604.63,-205.96"/>
</g>
<!-- PostCreationFormComponent  -->
<g id="node14" class="node">
<title>PostCreationFormComponent </title>
<polygon fill="#fb8072" stroke="black" points="1505.99,-252 1318.01,-252 1318.01,-216 1505.99,-216 1505.99,-252"/>
<text text-anchor="middle" x="1412" y="-229.8" font-family="Times,serif" font-size="14.00">PostCreationFormComponent </text>
</g>
<!-- PostModule&#45;&gt;PostCreationFormComponent  -->
<g id="edge13" class="edge">
<title>PostModule&#45;&gt;PostCreationFormComponent </title>
<path fill="none" stroke="black" stroke-dasharray="5,2" d="M1097.74,-180C1184.82,-180 1377.83,-180 1377.83,-180 1377.83,-180 1377.83,-205.72 1377.83,-205.72"/>
<polygon fill="black" stroke="black" points="1374.33,-205.72 1377.83,-215.72 1381.33,-205.72 1374.33,-205.72"/>
</g>
<!-- PostListComponent  -->
<g id="node15" class="node">
<title>PostListComponent </title>
<polygon fill="#fb8072" stroke="black" points="1300.23,-252 1169.77,-252 1169.77,-216 1300.23,-216 1300.23,-252"/>
<text text-anchor="middle" x="1235" y="-229.8" font-family="Times,serif" font-size="14.00">PostListComponent </text>
</g>
<!-- PostModule&#45;&gt;PostListComponent  -->
<g id="edge14" class="edge">
<title>PostModule&#45;&gt;PostListComponent </title>
<path fill="none" stroke="black" stroke-dasharray="5,2" d="M1098.03,-184C1144.02,-184 1211.3,-184 1211.3,-184 1211.3,-184 1211.3,-205.95 1211.3,-205.95"/>
<polygon fill="black" stroke="black" points="1207.8,-205.95 1211.3,-215.95 1214.8,-205.95 1207.8,-205.95"/>
</g>
<!-- PostListPaginationComponent  -->
<g id="node16" class="node">
<title>PostListPaginationComponent </title>
<polygon fill="#fb8072" stroke="black" points="1151.11,-252 960.89,-252 960.89,-216 1151.11,-216 1151.11,-252"/>
<text text-anchor="middle" x="1056" y="-229.8" font-family="Times,serif" font-size="14.00">PostListPaginationComponent </text>
</g>
<!-- PostModule&#45;&gt;PostListPaginationComponent  -->
<g id="edge15" class="edge">
<title>PostModule&#45;&gt;PostListPaginationComponent </title>
<path fill="none" stroke="black" stroke-dasharray="5,2" d="M1056,-187.11C1056,-187.11 1056,-205.99 1056,-205.99"/>
<polygon fill="black" stroke="black" points="1052.5,-205.99 1056,-215.99 1059.5,-205.99 1052.5,-205.99"/>
</g>
<!-- PostListSearchComponent  -->
<g id="node17" class="node">
<title>PostListSearchComponent </title>
<polygon fill="#fb8072" stroke="black" points="942.32,-252 773.68,-252 773.68,-216 942.32,-216 942.32,-252"/>
<text text-anchor="middle" x="858" y="-229.8" font-family="Times,serif" font-size="14.00">PostListSearchComponent </text>
</g>
<!-- PostModule&#45;&gt;PostListSearchComponent  -->
<g id="edge16" class="edge">
<title>PostModule&#45;&gt;PostListSearchComponent </title>
<path fill="none" stroke="black" stroke-dasharray="5,2" d="M1014.19,-184C949.79,-184 833.7,-184 833.7,-184 833.7,-184 833.7,-205.95 833.7,-205.95"/>
<polygon fill="black" stroke="black" points="830.2,-205.95 833.7,-215.95 837.2,-205.95 830.2,-205.95"/>
</g>
<!-- PostViewConsultationComponent  -->
<g id="node18" class="node">
<title>PostViewConsultationComponent </title>
<polygon fill="#fb8072" stroke="black" points="755.33,-252 544.67,-252 544.67,-216 755.33,-216 755.33,-252"/>
<text text-anchor="middle" x="650" y="-229.8" font-family="Times,serif" font-size="14.00">PostViewConsultationComponent </text>
</g>
<!-- PostModule&#45;&gt;PostViewConsultationComponent  -->
<g id="edge17" class="edge">
<title>PostModule&#45;&gt;PostViewConsultationComponent </title>
<path fill="none" stroke="black" stroke-dasharray="5,2" d="M1014.33,-180C905.54,-180 621.36,-180 621.36,-180 621.36,-180 621.36,-205.72 621.36,-205.72"/>
<polygon fill="black" stroke="black" points="617.86,-205.72 621.36,-215.72 624.86,-205.72 617.86,-205.72"/>
</g>
<!-- PostViewCreationComponent  -->
<g id="node19" class="node">
<title>PostViewCreationComponent </title>
<polygon fill="#fb8072" stroke="black" points="526.98,-252 339.02,-252 339.02,-216 526.98,-216 526.98,-252"/>
<text text-anchor="middle" x="433" y="-229.8" font-family="Times,serif" font-size="14.00">PostViewCreationComponent </text>
</g>
<!-- PostModule&#45;&gt;PostViewCreationComponent  -->
<g id="edge18" class="edge">
<title>PostModule&#45;&gt;PostViewCreationComponent </title>
<path fill="none" stroke="black" stroke-dasharray="5,2" d="M1014.1,-177C875.32,-177 439.38,-177 439.38,-177 439.38,-177 439.38,-205.96 439.38,-205.96"/>
<polygon fill="black" stroke="black" points="435.88,-205.96 439.38,-215.96 442.88,-205.96 435.88,-205.96"/>
</g>
<!-- PostViewListComponent  -->
<g id="node20" class="node">
<title>PostViewListComponent </title>
<polygon fill="#fb8072" stroke="black" points="321.55,-252 160.45,-252 160.45,-216 321.55,-216 321.55,-252"/>
<text text-anchor="middle" x="241" y="-229.8" font-family="Times,serif" font-size="14.00">PostViewListComponent </text>
</g>
<!-- PostModule&#45;&gt;PostViewListComponent  -->
<g id="edge19" class="edge">
<title>PostModule&#45;&gt;PostViewListComponent </title>
<path fill="none" stroke="black" stroke-dasharray="5,2" d="M1014.31,-173C849.03,-173 248.88,-173 248.88,-173 248.88,-173 248.88,-205.7 248.88,-205.7"/>
<polygon fill="black" stroke="black" points="245.38,-205.7 248.88,-215.7 252.38,-205.7 245.38,-205.7"/>
</g>
<!-- PostRoutingModule -->
<g id="node11" class="node">
<title>PostRoutingModule</title>
<polygon fill="#8dd3c7" stroke="black" points="152.29,-122 149.29,-126 128.29,-126 125.29,-122 23.71,-122 23.71,-86 152.29,-86 152.29,-122"/>
<text text-anchor="middle" x="88" y="-99.8" font-family="Times,serif" font-size="14.00">PostRoutingModule</text>
</g>
<!-- PostRoutingModule&#45;&gt;PostModule -->
<g id="edge10" class="edge">
<title>PostRoutingModule&#45;&gt;PostModule</title>
<path fill="none" stroke="black" d="M88,-122.11C88,-141.34 88,-169 88,-169 88,-169 1004.1,-169 1004.1,-169"/>
<polygon fill="black" stroke="black" points="1004.1,-172.5 1014.1,-169 1004.1,-165.5 1004.1,-172.5"/>
</g>
<!-- PostService -->
<g id="node21" class="node">
<title>PostService</title>
<ellipse fill="#fdb462" stroke="black" cx="1940" cy="-104" rx="56.76" ry="18"/>
<text text-anchor="middle" x="1940" y="-99.8" font-family="Times,serif" font-size="14.00">PostService</text>
</g>
<!-- PostService&#45;&gt;PostModule -->
<g id="edge20" class="edge">
<title>PostService&#45;&gt;PostModule</title>
<path fill="none" stroke="black" d="M1940,-122.11C1940,-141.34 1940,-169 1940,-169 1940,-169 1107.75,-169 1107.75,-169"/>
<polygon fill="black" stroke="black" points="1107.75,-165.5 1097.75,-169 1107.75,-172.5 1107.75,-165.5"/>
</g>
</g>
</svg>
