<?xml version="1.0" encoding="UTF-8" standalone="no"?>
<!DOCTYPE svg PUBLIC "-//W3C//DTD SVG 1.1//EN"
 "http://www.w3.org/Graphics/SVG/1.1/DTD/svg11.dtd">
<!-- Generated by graphviz version 2.47.0 (20210316.0004)
 -->
<!-- Title: dependencies Pages: 1 -->
<svg width="750pt" height="284pt"
 viewBox="0.00 0.00 750.00 284.00" xmlns="http://www.w3.org/2000/svg" xmlns:xlink="http://www.w3.org/1999/xlink">
<g id="graph0" class="graph" transform="scale(1 1) rotate(0) translate(4 280)">
<title>dependencies</title>
<polygon fill="white" stroke="transparent" points="-4,4 -4,-280 746,-280 746,4 -4,4"/>
<text text-anchor="start" x="350.01" y="-42.4" font-family="Times-12" font-weight="bold" font-size="14.00">Legend</text>
<polygon fill="#ffffb3" stroke="transparent" points="137,-10 137,-30 157,-30 157,-10 137,-10"/>
<text text-anchor="start" x="160.63" y="-15.4" font-family="Times-12" font-size="14.00"> &#160;Declarations</text>
<polygon fill="#8dd3c7" stroke="transparent" points="250,-10 250,-30 270,-30 270,-10 250,-10"/>
<text text-anchor="start" x="273.73" y="-15.4" font-family="Times-12" font-size="14.00"> &#160;Module</text>
<polygon fill="#80b1d3" stroke="transparent" points="336,-10 336,-30 356,-30 356,-10 336,-10"/>
<text text-anchor="start" x="359.78" y="-15.4" font-family="Times-12" font-size="14.00"> &#160;Bootstrap</text>
<polygon fill="#fdb462" stroke="transparent" points="433,-10 433,-30 453,-30 453,-10 433,-10"/>
<text text-anchor="start" x="456.67" y="-15.4" font-family="Times-12" font-size="14.00"> &#160;Providers</text>
<polygon fill="#fb8072" stroke="transparent" points="529,-10 529,-30 549,-30 549,-10 529,-10"/>
<text text-anchor="start" x="552.73" y="-15.4" font-family="Times-12" font-size="14.00"> &#160;Exports</text>
<g id="clust1" class="cluster">
<title>cluster_ProductModule</title>
<polygon fill="none" stroke="black" stroke-dasharray="1,5" points="8,-70 8,-268 734,-268 734,-70 8,-70"/>
</g>
<g id="clust7" class="cluster">
<title>cluster_ProductModule_exports</title>
<polygon fill="none" stroke="black" points="93,-208 93,-260 649,-260 649,-208 93,-208"/>
</g>
<g id="clust9" class="cluster">
<title>cluster_ProductModule_providers</title>
<polygon fill="none" stroke="black" points="570,-78 570,-130 726,-130 726,-78 570,-78"/>
</g>
<g id="clust2" class="cluster">
<title>cluster_ProductModule_declarations</title>
<polygon fill="none" stroke="black" points="16,-78 16,-130 562,-130 562,-78 16,-78"/>
</g>
<!-- ProductListComponent -->
<g id="node1" class="node">
<title>ProductListComponent</title>
<polygon fill="#ffffb3" stroke="black" points="554.16,-122 407.84,-122 407.84,-86 554.16,-86 554.16,-122"/>
<text text-anchor="middle" x="481" y="-99.8" font-family="Times,serif" font-size="14.00">ProductListComponent</text>
</g>
<!-- ProductModule -->
<g id="node4" class="node">
<title>ProductModule</title>
<polygon fill="#8dd3c7" stroke="black" points="430.6,-187 427.6,-191 406.6,-191 403.6,-187 327.4,-187 327.4,-151 430.6,-151 430.6,-187"/>
<text text-anchor="middle" x="379" y="-164.8" font-family="Times,serif" font-size="14.00">ProductModule</text>
</g>
<!-- ProductListComponent&#45;&gt;ProductModule -->
<g id="edge1" class="edge">
<title>ProductListComponent&#45;&gt;ProductModule</title>
<path fill="none" stroke="black" d="M419.11,-122.11C419.11,-122.11 419.11,-140.99 419.11,-140.99"/>
<polygon fill="black" stroke="black" points="415.61,-140.99 419.11,-150.99 422.61,-140.99 415.61,-140.99"/>
</g>
<!-- ProductPaginationComponent -->
<g id="node2" class="node">
<title>ProductPaginationComponent</title>
<polygon fill="#ffffb3" stroke="black" points="389.26,-122 204.74,-122 204.74,-86 389.26,-86 389.26,-122"/>
<text text-anchor="middle" x="297" y="-99.8" font-family="Times,serif" font-size="14.00">ProductPaginationComponent</text>
</g>
<!-- ProductPaginationComponent&#45;&gt;ProductModule -->
<g id="edge2" class="edge">
<title>ProductPaginationComponent&#45;&gt;ProductModule</title>
<path fill="none" stroke="black" d="M358.42,-122.11C358.42,-122.11 358.42,-140.99 358.42,-140.99"/>
<polygon fill="black" stroke="black" points="354.92,-140.99 358.42,-150.99 361.92,-140.99 354.92,-140.99"/>
</g>
<!-- ProductSearchComponent -->
<g id="node3" class="node">
<title>ProductSearchComponent</title>
<polygon fill="#ffffb3" stroke="black" points="186.47,-122 23.53,-122 23.53,-86 186.47,-86 186.47,-122"/>
<text text-anchor="middle" x="105" y="-99.8" font-family="Times,serif" font-size="14.00">ProductSearchComponent</text>
</g>
<!-- ProductSearchComponent&#45;&gt;ProductModule -->
<g id="edge3" class="edge">
<title>ProductSearchComponent&#45;&gt;ProductModule</title>
<path fill="none" stroke="black" d="M143.62,-122.02C143.62,-139.37 143.62,-163 143.62,-163 143.62,-163 317.35,-163 317.35,-163"/>
<polygon fill="black" stroke="black" points="317.35,-166.5 327.35,-163 317.35,-159.5 317.35,-166.5"/>
</g>
<!-- ProductListComponent  -->
<g id="node5" class="node">
<title>ProductListComponent </title>
<polygon fill="#fb8072" stroke="black" points="641.16,-252 490.84,-252 490.84,-216 641.16,-216 641.16,-252"/>
<text text-anchor="middle" x="566" y="-229.8" font-family="Times,serif" font-size="14.00">ProductListComponent </text>
</g>
<!-- ProductModule&#45;&gt;ProductListComponent  -->
<g id="edge4" class="edge">
<title>ProductModule&#45;&gt;ProductListComponent </title>
<path fill="none" stroke="black" stroke-dasharray="5,2" d="M430.85,-175C471.99,-175 522.62,-175 522.62,-175 522.62,-175 522.62,-205.98 522.62,-205.98"/>
<polygon fill="black" stroke="black" points="519.13,-205.98 522.62,-215.98 526.13,-205.98 519.13,-205.98"/>
</g>
<!-- ProductPaginationComponent  -->
<g id="node6" class="node">
<title>ProductPaginationComponent </title>
<polygon fill="#fb8072" stroke="black" points="473.26,-252 284.74,-252 284.74,-216 473.26,-216 473.26,-252"/>
<text text-anchor="middle" x="379" y="-229.8" font-family="Times,serif" font-size="14.00">ProductPaginationComponent </text>
</g>
<!-- ProductModule&#45;&gt;ProductPaginationComponent  -->
<g id="edge5" class="edge">
<title>ProductModule&#45;&gt;ProductPaginationComponent </title>
<path fill="none" stroke="black" stroke-dasharray="5,2" d="M379,-187.11C379,-187.11 379,-205.99 379,-205.99"/>
<polygon fill="black" stroke="black" points="375.5,-205.99 379,-215.99 382.5,-205.99 375.5,-205.99"/>
</g>
<!-- ProductSearchComponent  -->
<g id="node7" class="node">
<title>ProductSearchComponent </title>
<polygon fill="#fb8072" stroke="black" points="267.47,-252 100.53,-252 100.53,-216 267.47,-216 267.47,-252"/>
<text text-anchor="middle" x="184" y="-229.8" font-family="Times,serif" font-size="14.00">ProductSearchComponent </text>
</g>
<!-- ProductModule&#45;&gt;ProductSearchComponent  -->
<g id="edge6" class="edge">
<title>ProductModule&#45;&gt;ProductSearchComponent </title>
<path fill="none" stroke="black" stroke-dasharray="5,2" d="M327.35,-175C286.37,-175 235.93,-175 235.93,-175 235.93,-175 235.93,-205.98 235.93,-205.98"/>
<polygon fill="black" stroke="black" points="232.43,-205.98 235.93,-215.98 239.43,-205.98 232.43,-205.98"/>
</g>
<!-- ProductService -->
<g id="node8" class="node">
<title>ProductService</title>
<ellipse fill="#fdb462" stroke="black" cx="648" cy="-104" rx="70.06" ry="18"/>
<text text-anchor="middle" x="648" y="-99.8" font-family="Times,serif" font-size="14.00">ProductService</text>
</g>
<!-- ProductService&#45;&gt;ProductModule -->
<g id="edge7" class="edge">
<title>ProductService&#45;&gt;ProductModule</title>
<path fill="none" stroke="black" d="M609.52,-119.19C609.52,-136.68 609.52,-163 609.52,-163 609.52,-163 440.73,-163 440.73,-163"/>
<polygon fill="black" stroke="black" points="440.73,-159.5 430.73,-163 440.73,-166.5 440.73,-159.5"/>
</g>
</g>
</svg>
