<?xml version="1.0" encoding="UTF-8" standalone="no"?>
<!DOCTYPE svg PUBLIC "-//W3C//DTD SVG 1.1//EN"
 "http://www.w3.org/Graphics/SVG/1.1/DTD/svg11.dtd">
<!-- Generated by graphviz version 2.47.0 (20210316.0004)
 -->
<!-- Title: dependencies Pages: 1 -->
<svg width="1238pt" height="284pt"
 viewBox="0.00 0.00 1238.00 284.00" xmlns="http://www.w3.org/2000/svg" xmlns:xlink="http://www.w3.org/1999/xlink">
<g id="graph0" class="graph" transform="scale(1 1) rotate(0) translate(4 280)">
<title>dependencies</title>
<polygon fill="white" stroke="transparent" points="-4,4 -4,-280 1234,-280 1234,4 -4,4"/>
<text text-anchor="start" x="594.01" y="-42.4" font-family="Times-12" font-weight="bold" font-size="14.00">Legend</text>
<polygon fill="#ffffb3" stroke="transparent" points="381,-10 381,-30 401,-30 401,-10 381,-10"/>
<text text-anchor="start" x="404.63" y="-15.4" font-family="Times-12" font-size="14.00"> &#160;Declarations</text>
<polygon fill="#8dd3c7" stroke="transparent" points="494,-10 494,-30 514,-30 514,-10 494,-10"/>
<text text-anchor="start" x="517.73" y="-15.4" font-family="Times-12" font-size="14.00"> &#160;Module</text>
<polygon fill="#80b1d3" stroke="transparent" points="580,-10 580,-30 600,-30 600,-10 580,-10"/>
<text text-anchor="start" x="603.78" y="-15.4" font-family="Times-12" font-size="14.00"> &#160;Bootstrap</text>
<polygon fill="#fdb462" stroke="transparent" points="677,-10 677,-30 697,-30 697,-10 677,-10"/>
<text text-anchor="start" x="700.67" y="-15.4" font-family="Times-12" font-size="14.00"> &#160;Providers</text>
<polygon fill="#fb8072" stroke="transparent" points="773,-10 773,-30 793,-30 793,-10 773,-10"/>
<text text-anchor="start" x="796.73" y="-15.4" font-family="Times-12" font-size="14.00"> &#160;Exports</text>
<g id="clust1" class="cluster">
<title>cluster_ProductModule</title>
<polygon fill="none" stroke="black" stroke-dasharray="1,5" points="8,-70 8,-268 1222,-268 1222,-70 8,-70"/>
</g>
<g id="clust9" class="cluster">
<title>cluster_ProductModule_exports</title>
<polygon fill="none" stroke="black" points="387,-208 387,-260 914,-260 914,-208 387,-208"/>
</g>
<g id="clust8" class="cluster">
<title>cluster_ProductModule_imports</title>
<polygon fill="none" stroke="black" points="1070,-78 1070,-130 1214,-130 1214,-78 1070,-78"/>
</g>
<g id="clust11" class="cluster">
<title>cluster_ProductModule_providers</title>
<polygon fill="none" stroke="black" points="906,-78 906,-130 1062,-130 1062,-78 906,-78"/>
</g>
<g id="clust2" class="cluster">
<title>cluster_ProductModule_declarations</title>
<polygon fill="none" stroke="black" points="16,-78 16,-130 898,-130 898,-78 16,-78"/>
</g>
<!-- ProductConsumerBase -->
<g id="node1" class="node">
<title>ProductConsumerBase</title>
<polygon fill="#ffffb3" stroke="black" points="890.31,-122 745.69,-122 745.69,-86 890.31,-86 890.31,-122"/>
<text text-anchor="middle" x="818" y="-99.8" font-family="Times,serif" font-size="14.00">ProductConsumerBase</text>
</g>
<!-- ProductModule -->
<g id="node6" class="node">
<title>ProductModule</title>
<polygon fill="#8dd3c7" stroke="black" points="706.6,-187 703.6,-191 682.6,-191 679.6,-187 603.4,-187 603.4,-151 706.6,-151 706.6,-187"/>
<text text-anchor="middle" x="655" y="-164.8" font-family="Times,serif" font-size="14.00">ProductModule</text>
</g>
<!-- ProductConsumerBase&#45;&gt;ProductModule -->
<g id="edge1" class="edge">
<title>ProductConsumerBase&#45;&gt;ProductModule</title>
<path fill="none" stroke="black" d="M750.88,-122.01C750.88,-138.05 750.88,-159 750.88,-159 750.88,-159 716.59,-159 716.59,-159"/>
<polygon fill="black" stroke="black" points="716.59,-155.5 706.59,-159 716.59,-162.5 716.59,-155.5"/>
</g>
<!-- ProductListComponent -->
<g id="node2" class="node">
<title>ProductListComponent</title>
<polygon fill="#ffffb3" stroke="black" points="728.16,-122 581.84,-122 581.84,-86 728.16,-86 728.16,-122"/>
<text text-anchor="middle" x="655" y="-99.8" font-family="Times,serif" font-size="14.00">ProductListComponent</text>
</g>
<!-- ProductListComponent&#45;&gt;ProductModule -->
<g id="edge2" class="edge">
<title>ProductListComponent&#45;&gt;ProductModule</title>
<path fill="none" stroke="black" d="M655,-122.11C655,-122.11 655,-140.99 655,-140.99"/>
<polygon fill="black" stroke="black" points="651.5,-140.99 655,-150.99 658.5,-140.99 651.5,-140.99"/>
</g>
<!-- ProductPaginationComponent -->
<g id="node3" class="node">
<title>ProductPaginationComponent</title>
<polygon fill="#ffffb3" stroke="black" points="563.26,-122 378.74,-122 378.74,-86 563.26,-86 563.26,-122"/>
<text text-anchor="middle" x="471" y="-99.8" font-family="Times,serif" font-size="14.00">ProductPaginationComponent</text>
</g>
<!-- ProductPaginationComponent&#45;&gt;ProductModule -->
<g id="edge3" class="edge">
<title>ProductPaginationComponent&#45;&gt;ProductModule</title>
<path fill="none" stroke="black" d="M558.37,-122.01C558.37,-138.05 558.37,-159 558.37,-159 558.37,-159 593.29,-159 593.29,-159"/>
<polygon fill="black" stroke="black" points="593.29,-162.5 603.29,-159 593.29,-155.5 593.29,-162.5"/>
</g>
<!-- ProductSearchComponent -->
<g id="node4" class="node">
<title>ProductSearchComponent</title>
<polygon fill="#ffffb3" stroke="black" points="360.47,-122 197.53,-122 197.53,-86 360.47,-86 360.47,-122"/>
<text text-anchor="middle" x="279" y="-99.8" font-family="Times,serif" font-size="14.00">ProductSearchComponent</text>
</g>
<!-- ProductSearchComponent&#45;&gt;ProductModule -->
<g id="edge4" class="edge">
<title>ProductSearchComponent&#45;&gt;ProductModule</title>
<path fill="none" stroke="black" d="M279,-122.27C279,-140.56 279,-166 279,-166 279,-166 593.11,-166 593.11,-166"/>
<polygon fill="black" stroke="black" points="593.11,-169.5 603.11,-166 593.11,-162.5 593.11,-169.5"/>
</g>
<!-- ProductViewComponent -->
<g id="node5" class="node">
<title>ProductViewComponent</title>
<polygon fill="#ffffb3" stroke="black" points="179.7,-122 24.3,-122 24.3,-86 179.7,-86 179.7,-122"/>
<text text-anchor="middle" x="102" y="-99.8" font-family="Times,serif" font-size="14.00">ProductViewComponent</text>
</g>
<!-- ProductViewComponent&#45;&gt;ProductModule -->
<g id="edge5" class="edge">
<title>ProductViewComponent&#45;&gt;ProductModule</title>
<path fill="none" stroke="black" d="M102,-122.13C102,-142.57 102,-173 102,-173 102,-173 592.98,-173 592.98,-173"/>
<polygon fill="black" stroke="black" points="592.98,-176.5 602.98,-173 592.98,-169.5 592.98,-176.5"/>
</g>
<!-- ProductListComponent  -->
<g id="node8" class="node">
<title>ProductListComponent </title>
<polygon fill="#fb8072" stroke="black" points="906.16,-252 755.84,-252 755.84,-216 906.16,-216 906.16,-252"/>
<text text-anchor="middle" x="831" y="-229.8" font-family="Times,serif" font-size="14.00">ProductListComponent </text>
</g>
<!-- ProductModule&#45;&gt;ProductListComponent  -->
<g id="edge7" class="edge">
<title>ProductModule&#45;&gt;ProductListComponent </title>
<path fill="none" stroke="black" stroke-dasharray="5,2" d="M706.79,-180C756.16,-180 823.04,-180 823.04,-180 823.04,-180 823.04,-205.72 823.04,-205.72"/>
<polygon fill="black" stroke="black" points="819.54,-205.72 823.04,-215.72 826.54,-205.72 819.54,-205.72"/>
</g>
<!-- ProductSearchComponent  -->
<g id="node9" class="node">
<title>ProductSearchComponent </title>
<polygon fill="#fb8072" stroke="black" points="738.47,-252 571.53,-252 571.53,-216 738.47,-216 738.47,-252"/>
<text text-anchor="middle" x="655" y="-229.8" font-family="Times,serif" font-size="14.00">ProductSearchComponent </text>
</g>
<!-- ProductModule&#45;&gt;ProductSearchComponent  -->
<g id="edge8" class="edge">
<title>ProductModule&#45;&gt;ProductSearchComponent </title>
<path fill="none" stroke="black" stroke-dasharray="5,2" d="M655,-187.11C655,-187.11 655,-205.99 655,-205.99"/>
<polygon fill="black" stroke="black" points="651.5,-205.99 655,-215.99 658.5,-205.99 651.5,-205.99"/>
</g>
<!-- ProductViewComponent  -->
<g id="node10" class="node">
<title>ProductViewComponent </title>
<polygon fill="#fb8072" stroke="black" points="553.2,-252 394.8,-252 394.8,-216 553.2,-216 553.2,-252"/>
<text text-anchor="middle" x="474" y="-229.8" font-family="Times,serif" font-size="14.00">ProductViewComponent </text>
</g>
<!-- ProductModule&#45;&gt;ProductViewComponent  -->
<g id="edge9" class="edge">
<title>ProductModule&#45;&gt;ProductViewComponent </title>
<path fill="none" stroke="black" stroke-dasharray="5,2" d="M603.13,-180C549.65,-180 474,-180 474,-180 474,-180 474,-205.72 474,-205.72"/>
<polygon fill="black" stroke="black" points="470.5,-205.72 474,-215.72 477.5,-205.72 470.5,-205.72"/>
</g>
<!-- NgOptimizedImage -->
<g id="node7" class="node">
<title>NgOptimizedImage</title>
<polygon fill="#8dd3c7" stroke="black" points="1205.69,-122 1202.69,-126 1181.69,-126 1178.69,-122 1078.31,-122 1078.31,-86 1205.69,-86 1205.69,-122"/>
<text text-anchor="middle" x="1142" y="-99.8" font-family="Times,serif" font-size="14.00">NgOptimizedImage</text>
</g>
<!-- NgOptimizedImage&#45;&gt;ProductModule -->
<g id="edge6" class="edge">
<title>NgOptimizedImage&#45;&gt;ProductModule</title>
<path fill="none" stroke="black" d="M1142,-122.13C1142,-142.57 1142,-173 1142,-173 1142,-173 716.66,-173 716.66,-173"/>
<polygon fill="black" stroke="black" points="716.66,-169.5 706.66,-173 716.66,-176.5 716.66,-169.5"/>
</g>
<!-- ProductService -->
<g id="node11" class="node">
<title>ProductService</title>
<ellipse fill="#fdb462" stroke="black" cx="984" cy="-104" rx="70.06" ry="18"/>
<text text-anchor="middle" x="984" y="-99.8" font-family="Times,serif" font-size="14.00">ProductService</text>
</g>
<!-- ProductService&#45;&gt;ProductModule -->
<g id="edge10" class="edge">
<title>ProductService&#45;&gt;ProductModule</title>
<path fill="none" stroke="black" d="M984,-122.27C984,-140.56 984,-166 984,-166 984,-166 716.77,-166 716.77,-166"/>
<polygon fill="black" stroke="black" points="716.77,-162.5 706.77,-166 716.77,-169.5 716.77,-162.5"/>
</g>
</g>
</svg>
